# xmcd CD database file
#
# Track frame offsets:
#	150
#	27759
#	60327
#	76055
#	116266
#	129345
#	155273
#	185075
#	226071
#	252779
#	264828
#	281458
#
# Disc length: 3902 seconds
#
# Revision: 1
# Processed by: cddbd v1.5.1PL0 Copyright (c) Steve Scherf et al.
# Submitted via: CDex 1.51
#
DISCID=850f3c0c
DTITLE=Davide Calvi and Nicola Boschetti - Signals
DYEAR=2000
DGENRE=Jazz
TTITLE0=Well You Needn't
TTITLE1=Dolphin Dance
TTITLE2=My Foolish Heart
TTITLE3=Maiden Voyage
TTITLE4=All The Things You Are
TTITLE5=Simple Blues
TTITLE6=Finestre Volanti
TTITLE7=Manha De Carnaval
TTITLE8=Nardis
TTITLE9=Infant Eyes
TTITLE10=Giant Steps
TTITLE11=Solitude
EXTD=YEAR: 2000
EXTT0=
EXTT1=
EXTT2=
EXTT3=
EXTT4=
EXTT5=
EXTT6=
EXTT7=
EXTT8=
EXTT9=
EXTT10=
EXTT11=
PLAYORDER=
